<svg width="24" height="24" viewBox="0 0 24 24" fill="none" xmlns="http://www.w3.org/2000/svg">
<path d="M6.00005 22.0001H22.0001V5.97006L6.00005 22.0001ZM20.0001 20.0001H18.0001V12.7801L20.0001 10.7801V20.0001ZM5.22005 7.22006L3.93005 5.93006C7.83005 2.02006 14.1701 2.02006 18.0801 5.93006L16.7901 7.22006C13.6001 4.03006 8.41005 4.03006 5.22005 7.22006V7.22006ZM12.9301 11.0701L11.0001 13.0001L9.07005 11.0701C9.58328 10.5608 10.277 10.275 11.0001 10.275C11.7231 10.275 12.4168 10.5608 12.9301 11.0701V11.0701ZM14.2201 9.79006C12.4401 8.02006 9.56005 8.02006 7.79005 9.79006L6.50005 8.50006C7.69483 7.30904 9.31304 6.64025 11.0001 6.64025C12.6871 6.64025 14.3053 7.30904 15.5001 8.50006L14.2201 9.79006V9.79006Z" fill="black"/>
<path d="M6.00005 22.0001H22.0001V5.97006L6.00005 22.0001ZM20.0001 20.0001H18.0001V12.7801L20.0001 10.7801V20.0001ZM5.22005 7.22006L3.93005 5.93006C7.83005 2.02006 14.1701 2.02006 18.0801 5.93006L16.7901 7.22006C13.6001 4.03006 8.41005 4.03006 5.22005 7.22006V7.22006ZM12.9301 11.0701L11.0001 13.0001L9.07005 11.0701C9.58328 10.5608 10.277 10.275 11.0001 10.275C11.7231 10.275 12.4168 10.5608 12.9301 11.0701V11.0701ZM14.2201 9.79006C12.4401 8.02006 9.56005 8.02006 7.79005 9.79006L6.50005 8.50006C7.69483 7.30904 9.31304 6.64025 11.0001 6.64025C12.6871 6.64025 14.3053 7.30904 15.5001 8.50006L14.2201 9.79006V9.79006Z" fill="#DCDCDC"/>
</svg>
